<svg xmlns="http://www.w3.org/2000/svg" width="192" height="41" viewBox="0 0 192 41" fill="none"><path d="M31.8678 5.24722H27.9486V1.32802C27.9486 0.669025 27.4144 0.134766 26.7554 0.134766H1.19325C0.534259 0.134766 0 0.669025 0 1.32802V34.5588C0 35.2178 0.534259 35.752 1.19325 35.752H5.11245V39.6712C5.11245 40.3302 5.64671 40.8645 6.30571 40.8645H31.8678C32.5268 40.8645 33.0611 40.3302 33.0611 39.6712V6.44047C33.0611 5.7814 32.5268 5.24722 31.8678 5.24722ZM2.38651 33.3655V2.52127H25.5621V33.3655H2.38651ZM30.6746 38.478H7.49896V35.752H26.7554C27.4144 35.752 27.9486 35.2178 27.9486 34.5588V7.63373H30.6746V38.478Z" fill="#0C4B4F"></path><path d="M9.29654 4.95799L7.58406 6.67039L7.1498 6.23604C6.68379 5.77012 5.9283 5.77004 5.4623 6.23604C4.99629 6.70205 4.99629 7.45754 5.4623 7.92354L6.74035 9.20167C7.18472 9.6637 7.98356 9.66402 8.42785 9.20167L10.984 6.64549C12.0602 5.48739 10.4566 3.88088 9.29654 4.95799Z" fill="#0C4B4F"></path><path d="M9.29654 26.0469L7.58406 27.7593L7.1498 27.3249C6.68379 26.859 5.9283 26.8589 5.4623 27.3249C4.99629 27.7909 4.99629 28.5464 5.4623 29.0124L6.74035 30.2905C7.18472 30.7526 7.98356 30.7529 8.42785 30.2905L10.984 27.7344C12.0602 26.5763 10.4566 24.9697 9.29654 26.0469Z" fill="#0C4B4F"></path><path d="M9.29654 19.0166L7.58406 20.729L7.1498 20.2946C6.68379 19.8287 5.9283 19.8286 5.4623 20.2946C4.99629 20.7606 4.99629 21.5161 5.4623 21.9821L6.74035 23.2603C7.18472 23.7223 7.98356 23.7226 8.42785 23.2603L10.984 20.7041C12.0602 19.5461 10.4566 17.9395 9.29654 19.0166Z" fill="#0C4B4F"></path><path d="M9.29654 11.9873L7.58406 13.6997L7.1498 13.2653C6.68379 12.7994 5.9283 12.7993 5.4623 13.2653C4.99629 13.7313 4.99629 14.4868 5.4623 14.9528L6.74035 16.231C7.18472 16.6931 7.98356 16.6933 8.42785 16.231L10.984 13.6748C12.0602 12.5167 10.4566 10.9102 9.29654 11.9873Z" fill="#0C4B4F"></path><path d="M21.644 6.52637H15.2535C13.6741 6.58404 13.6712 8.85401 15.2535 8.91287H21.644C22.303 8.91287 22.8372 8.37861 22.8372 7.71962C22.8372 7.06063 22.303 6.52637 21.644 6.52637Z" fill="#0C4B4F"></path><path d="M21.644 13.5547H15.2535C13.6741 13.6124 13.6712 15.8823 15.2535 15.9412H21.644C22.303 15.9412 22.8372 15.4069 22.8372 14.7479C22.8372 14.0889 22.303 13.5547 21.644 13.5547Z" fill="#0C4B4F"></path><path d="M21.644 20.585H15.2535C13.6741 20.6426 13.6712 22.9126 15.2535 22.9715H21.644C22.303 22.9715 22.8372 22.4372 22.8372 21.7782C22.8372 21.1192 22.303 20.585 21.644 20.585Z" fill="#0C4B4F"></path><path d="M21.644 27.6143H15.2535C13.6741 27.6719 13.6712 29.9419 15.2535 30.0008H21.644C22.303 30.0008 22.8372 29.4665 22.8372 28.8075C22.8372 28.1485 22.303 27.6143 21.644 27.6143Z" fill="#0C4B4F"></path><path d="M51.5661 29.8867V11.0766H54.4007L60.9058 24.4004L67.411 11.0766H70.2456V29.8867H67.3065V17.8299L61.5328 29.8867H60.2788L54.5182 17.8299V29.8867H51.5661ZM75.509 36.1568L78.226 28.698L78.2783 30.8925L72.1258 15.7791H75.4045L79.7674 26.9607H78.9314L83.1768 15.7791H86.3249L78.4612 36.1568H75.509ZM92.9807 29.8867V11.0766H98.9764C99.1332 11.0766 99.4423 11.0809 99.9039 11.0896C100.374 11.0983 100.827 11.1288 101.262 11.1811C102.752 11.3726 104.01 11.9039 105.037 12.7747C106.074 13.6368 106.858 14.7384 107.389 16.0795C107.92 17.4206 108.186 18.888 108.186 20.4816C108.186 22.0753 107.92 23.5426 107.389 24.8837C106.858 26.2248 106.074 27.3308 105.037 28.2016C104.01 29.0638 102.752 29.5906 101.262 29.7822C100.836 29.8345 100.387 29.8649 99.9169 29.8737C99.4467 29.8824 99.1332 29.8867 98.9764 29.8867H92.9807ZM96.181 26.9215H98.9764C99.2377 26.9215 99.5686 26.9128 99.9692 26.8954C100.378 26.878 100.74 26.8388 101.053 26.7778C101.942 26.6124 102.664 26.2161 103.222 25.5891C103.779 24.9621 104.188 24.2001 104.45 23.3032C104.72 22.4062 104.855 21.4657 104.855 20.4816C104.855 19.4628 104.72 18.5048 104.45 17.6079C104.18 16.7109 103.762 15.9576 103.196 15.348C102.638 14.7384 101.924 14.3509 101.053 14.1855C100.74 14.1158 100.378 14.0766 99.9692 14.0679C99.5686 14.0505 99.2377 14.0418 98.9764 14.0418H96.181V26.9215ZM116.303 30.2917C115.258 30.2917 114.395 30.1175 113.716 29.7692C113.037 29.4208 112.497 28.9767 112.096 28.4368C111.696 27.8968 111.4 27.3221 111.208 26.7125C111.017 26.1029 110.89 25.5282 110.829 24.9882C110.777 24.4396 110.751 23.9955 110.751 23.6559V15.7791H113.938V22.5717C113.938 23.0071 113.969 23.4991 114.03 24.0477C114.091 24.5877 114.23 25.1102 114.448 25.6152C114.674 26.1116 115.005 26.5209 115.44 26.8431C115.885 27.1653 116.481 27.3264 117.23 27.3264C117.631 27.3264 118.027 27.2611 118.419 27.1305C118.811 26.9999 119.163 26.7778 119.477 26.4643C119.799 26.1421 120.056 25.7023 120.247 25.145C120.439 24.5877 120.535 23.8823 120.535 23.0288L122.403 23.8257C122.403 25.0274 122.168 26.116 121.697 27.0913C121.236 28.0667 120.552 28.8461 119.647 29.4295C118.741 30.0043 117.626 30.2917 116.303 30.2917ZM120.914 29.8867V25.5107H120.535V15.7791H123.696V29.8867H120.914ZM131.05 30.2786C130.031 30.2786 129.169 30.087 128.463 29.7038C127.758 29.312 127.222 28.7938 126.857 28.1494C126.499 27.505 126.321 26.7952 126.321 26.0202C126.321 25.3409 126.434 24.7313 126.661 24.1914C126.887 23.6428 127.235 23.1725 127.706 22.7807C128.176 22.3801 128.785 22.0535 129.534 21.801C130.1 21.6181 130.762 21.4526 131.52 21.3046C132.286 21.1565 133.114 21.0216 134.002 20.8996C134.899 20.769 135.835 20.6297 136.81 20.4816L135.687 21.1217C135.696 20.1464 135.478 19.4279 135.034 18.9664C134.59 18.5048 133.841 18.2741 132.787 18.2741C132.151 18.2741 131.537 18.4221 130.945 18.7182C130.353 19.0143 129.939 19.5237 129.704 20.2465L126.83 19.3452C127.179 18.1521 127.841 17.1942 128.816 16.4714C129.8 15.7486 131.124 15.3872 132.787 15.3872C134.041 15.3872 135.143 15.5919 136.092 16.0012C137.05 16.4105 137.759 17.081 138.221 18.0128C138.474 18.5092 138.626 19.0186 138.678 19.5411C138.73 20.0549 138.757 20.6166 138.757 21.2262V29.8867H136V26.8301L136.458 27.3264C135.822 28.3453 135.077 29.0943 134.224 29.5732C133.379 30.0435 132.321 30.2786 131.05 30.2786ZM131.677 27.7706C132.391 27.7706 133 27.6443 133.505 27.3918C134.01 27.1392 134.411 26.8301 134.707 26.4643C135.012 26.0986 135.217 25.7546 135.321 25.4324C135.487 25.0318 135.578 24.5746 135.595 24.0608C135.622 23.5383 135.635 23.1159 135.635 22.7937L136.601 23.0811C135.652 23.2291 134.838 23.3598 134.159 23.473C133.479 23.5862 132.896 23.695 132.408 23.7995C131.92 23.8953 131.489 24.0042 131.115 24.1261C130.749 24.2567 130.44 24.4091 130.187 24.5833C129.935 24.7575 129.739 24.9578 129.6 25.1842C129.469 25.4106 129.404 25.6762 129.404 25.981C129.404 26.3293 129.491 26.6385 129.665 26.9084C129.839 27.1697 130.092 27.3787 130.423 27.5354C130.762 27.6922 131.18 27.7706 131.677 27.7706ZM147.126 29.8867V11.0766H150.274V26.9346H158.582V29.8867H147.126ZM160.795 13.6368V10.75H163.943V13.6368H160.795ZM160.795 29.8867V15.7791H163.943V29.8867H160.795ZM173.042 30.2786C171.3 30.2786 169.885 29.8867 168.796 29.103C167.708 28.3192 167.046 27.2176 166.811 25.7981L170.024 25.3017C170.19 25.9984 170.556 26.547 171.122 26.9476C171.688 27.3482 172.402 27.5485 173.264 27.5485C174.022 27.5485 174.605 27.4005 175.014 27.1044C175.432 26.7996 175.641 26.3859 175.641 25.8634C175.641 25.5412 175.563 25.2843 175.406 25.0927C175.258 24.8924 174.927 24.7009 174.413 24.518C173.9 24.3351 173.112 24.1043 172.049 23.8257C170.865 23.5122 169.924 23.1769 169.228 22.8198C168.531 22.4541 168.03 22.023 167.725 21.5266C167.421 21.0303 167.268 20.4294 167.268 19.724C167.268 18.8445 167.499 18.0781 167.96 17.425C168.422 16.7719 169.066 16.2711 169.894 15.9228C170.721 15.5657 171.696 15.3872 172.82 15.3872C173.917 15.3872 174.888 15.557 175.733 15.8967C176.586 16.2363 177.274 16.7196 177.797 17.3466C178.319 17.9736 178.641 18.7095 178.763 19.5542L175.55 20.1289C175.471 19.5281 175.197 19.0535 174.727 18.7051C174.265 18.3568 173.647 18.1608 172.872 18.1173C172.132 18.0738 171.535 18.187 171.082 18.4569C170.63 18.7182 170.403 19.0883 170.403 19.5673C170.403 19.8372 170.495 20.068 170.678 20.2596C170.86 20.4512 171.226 20.6427 171.775 20.8343C172.332 21.0259 173.159 21.261 174.257 21.5397C175.38 21.8271 176.277 22.158 176.948 22.5325C177.627 22.8982 178.114 23.338 178.411 23.8518C178.715 24.3656 178.868 24.9882 178.868 25.7197C178.868 27.1392 178.35 28.2539 177.313 29.0638C176.286 29.8737 174.862 30.2786 173.042 30.2786ZM189.736 29.8867C188.804 30.0609 187.89 30.1349 186.993 30.1088C186.105 30.0914 185.308 29.9303 184.603 29.6255C183.897 29.312 183.362 28.8199 182.996 28.1494C182.674 27.5398 182.504 26.9172 182.487 26.2814C182.469 25.6457 182.46 24.9273 182.46 24.1261V11.8603H185.595V23.9432C185.595 24.5093 185.6 25.0057 185.608 25.4324C185.626 25.8591 185.717 26.2074 185.883 26.4774C186.196 26.9999 186.697 27.2916 187.385 27.3526C188.073 27.4135 188.857 27.3787 189.736 27.2481V29.8867ZM179.9 18.2479V15.7791H189.736V18.2479H179.9Z" fill="#0C4B4F"></path></svg>